# xmcd CD database file
#
# Track frame offsets:
#	150
#	11832
#	27250
#
# Disc length: 604 seconds
#
# Revision: 0
# Processed by: cddbd v1.5.1PL0 Copyright (c) Steve Scherf et al.
# Submitted via: CDex 1.50
#
DISCID=1b025a03
DTITLE=WAG - Odyssey
DYEAR=1999
DGENRE=J-POP
TTITLE0=Odyssey
TTITLE1=Worth
TTITLE2=What's There to Find
EXTD=YEAR: 1999
EXTT0=
EXTT1=
EXTT2=
PLAYORDER=
